<?xml version="1.0" encoding="UTF-8" standalone="no"?>
<!DOCTYPE svg PUBLIC "-//W3C//DTD SVG 1.1//EN" "http://www.w3.org/Graphics/SVG/1.1/DTD/svg11.dtd">
<svg width="100%" height="100%" viewBox="0 0 2000 500" version="1.1" xmlns="http://www.w3.org/2000/svg" xmlns:xlink="http://www.w3.org/1999/xlink" xml:space="preserve" xmlns:serif="http://www.serif.com/" style="fill-rule:evenodd;clip-rule:evenodd;stroke-linecap:round;stroke-linejoin:round;stroke-miterlimit:1.5;">
    <g transform="matrix(0.716032,0,0,0.716032,-154.108,-116.966)">
        <g transform="matrix(1,0,0,1,18.3746,93.0789)">
            <path d="M320.399,496.067C319.736,474.089 324.169,444.832 347.907,425.966C339.683,419.232 335.721,402.705 336.537,387.261C335.647,370.25 340.409,352.293 351.505,347.779C355.043,346.34 359.385,344.76 364.402,343.07C360.425,337.143 358.684,329.173 359.405,321.229C358.293,309.131 362.976,295.617 374.313,288.476C378.233,286.007 385.662,282.818 395.512,279.21C393.711,272.661 393.002,264.907 393.319,257.314C392.49,237.676 398.716,216.299 410.87,217.129C411.193,217.151 411.519,217.172 411.848,217.192C428.643,193.178 474.838,133.677 505.09,123.48C540.108,111.677 613.525,140.304 618.301,154.993C619.44,158.497 618.502,161.904 616.089,165.126C628.424,166.627 636.66,172.147 646.223,176.864C652.576,179.999 656.551,183.924 667.913,179.577C659.922,188.517 648.531,183.001 648.548,185.45C648.579,189.982 662.047,191.862 662.047,191.862C654.296,193.726 644.599,191.494 640.929,187.487C633.441,179.312 626.19,169.96 613.282,168.212C602.614,178.174 578.659,185.907 561.576,188.433C550.573,190.06 524.104,184.223 509.642,195.711C503.066,200.934 488.242,204.738 482.112,215.25C519.153,213.497 556.64,212.614 570.225,221.171C574.674,223.974 578.099,227.758 580.55,232.054C583.597,231.722 586.318,231.511 588.668,231.434C608.077,230.796 614.206,245.819 613.122,262.284C613.634,269.446 612.474,277.331 610.212,284.601C612.246,284.384 613.939,284.259 615.258,284.235C631.119,283.943 639.091,297.846 637.242,312.057C638.035,317.961 637.044,324.423 634.11,330.304C649.869,330.403 656.906,347.205 655.581,364.253C655.804,367.034 655.79,369.896 655.539,372.761C656.942,388.244 650.929,406.377 637.799,413.563C633.91,415.691 628.96,417.742 623.135,419.725C598.081,489.177 524.105,694.281 523.257,696.999C514.397,725.401 468.271,724.99 458.187,696.999C434.877,632.296 382.524,511.764 364.182,469.905C331.504,483.242 325.095,513.358 324.218,530.423C324.337,532.592 324.504,533.83 324.504,533.83C324.504,533.83 324.365,533.338 324.137,532.417C323.952,538.741 324.504,542.83 324.504,542.83C324.504,542.83 319.674,525.767 320.415,504.575C320.322,501.843 320.308,498.996 320.399,496.067Z" style="fill:rgb(174,94,37);"/>
            <clipPath id="_clip1">
                <path d="M320.399,496.067C319.736,474.089 324.169,444.832 347.907,425.966C339.683,419.232 335.721,402.705 336.537,387.261C335.647,370.25 340.409,352.293 351.505,347.779C355.043,346.34 359.385,344.76 364.402,343.07C360.425,337.143 358.684,329.173 359.405,321.229C358.293,309.131 362.976,295.617 374.313,288.476C378.233,286.007 385.662,282.818 395.512,279.21C393.711,272.661 393.002,264.907 393.319,257.314C392.49,237.676 398.716,216.299 410.87,217.129C411.193,217.151 411.519,217.172 411.848,217.192C428.643,193.178 474.838,133.677 505.09,123.48C540.108,111.677 613.525,140.304 618.301,154.993C619.44,158.497 618.502,161.904 616.089,165.126C628.424,166.627 636.66,172.147 646.223,176.864C652.576,179.999 656.551,183.924 667.913,179.577C659.922,188.517 648.531,183.001 648.548,185.45C648.579,189.982 662.047,191.862 662.047,191.862C654.296,193.726 644.599,191.494 640.929,187.487C633.441,179.312 626.19,169.96 613.282,168.212C602.614,178.174 578.659,185.907 561.576,188.433C550.573,190.06 524.104,184.223 509.642,195.711C503.066,200.934 488.242,204.738 482.112,215.25C519.153,213.497 556.64,212.614 570.225,221.171C574.674,223.974 578.099,227.758 580.55,232.054C583.597,231.722 586.318,231.511 588.668,231.434C608.077,230.796 614.206,245.819 613.122,262.284C613.634,269.446 612.474,277.331 610.212,284.601C612.246,284.384 613.939,284.259 615.258,284.235C631.119,283.943 639.091,297.846 637.242,312.057C638.035,317.961 637.044,324.423 634.11,330.304C649.869,330.403 656.906,347.205 655.581,364.253C655.804,367.034 655.79,369.896 655.539,372.761C656.942,388.244 650.929,406.377 637.799,413.563C633.91,415.691 628.96,417.742 623.135,419.725C598.081,489.177 524.105,694.281 523.257,696.999C514.397,725.401 468.271,724.99 458.187,696.999C434.877,632.296 382.524,511.764 364.182,469.905C331.504,483.242 325.095,513.358 324.218,530.423C324.337,532.592 324.504,533.83 324.504,533.83C324.504,533.83 324.365,533.338 324.137,532.417C323.952,538.741 324.504,542.83 324.504,542.83C324.504,542.83 319.674,525.767 320.415,504.575C320.322,501.843 320.308,498.996 320.399,496.067Z"/>
            </clipPath>
            <g clip-path="url(#_clip1)">
                <path d="M357.685,512.5L604.014,625.749" style="fill:none;stroke:rgb(128,42,0);stroke-width:8.73px;"/>
                <g transform="matrix(1,0,0,1,-9.43915,56.6247)">
                    <path d="M357.685,512.5L604.014,625.749" style="fill:none;stroke:rgb(128,42,0);stroke-width:8.73px;"/>
                </g>
                <g transform="matrix(1,0,0,1,-9.43915,113.249)">
                    <path d="M357.685,512.5L604.014,625.749" style="fill:none;stroke:rgb(128,42,0);stroke-width:8.73px;"/>
                </g>
                <g transform="matrix(1,0,0,1,9.43915,-113.249)">
                    <path d="M357.685,512.5L604.014,625.749" style="fill:none;stroke:rgb(128,42,0);stroke-width:8.73px;"/>
                </g>
                <g transform="matrix(1,0,0,1,0,-56.6247)">
                    <path d="M357.685,512.5L604.014,625.749" style="fill:none;stroke:rgb(128,42,0);stroke-width:8.73px;"/>
                </g>
                <g transform="matrix(1,0,0,1,62.3469,-145.544)">
                    <path d="M357.685,512.5L604.014,625.749" style="fill:none;stroke:rgb(128,42,0);stroke-width:8.73px;"/>
                </g>
                <g transform="matrix(1,0,0,1,62.3469,-88.919)">
                    <path d="M357.685,512.5L604.014,625.749" style="fill:none;stroke:rgb(128,42,0);stroke-width:8.73px;"/>
                </g>
                <g transform="matrix(1,0,0,1,-9.43915,170.53)">
                    <path d="M357.685,512.5L604.014,625.749" style="fill:none;stroke:rgb(128,42,0);stroke-width:8.73px;"/>
                </g>
                <g transform="matrix(-1,0,0,1,1001.81,15.0345)">
                    <path d="M357.685,512.5L604.014,625.749" style="fill:none;stroke:rgb(128,42,0);stroke-width:8.73px;"/>
                </g>
                <g transform="matrix(-1,0,0,1,1011.25,71.6593)">
                    <path d="M357.685,512.5L604.014,625.749" style="fill:none;stroke:rgb(128,42,0);stroke-width:8.73px;"/>
                </g>
                <g transform="matrix(-1,0,0,1,1011.25,128.284)">
                    <path d="M357.685,512.5L604.014,625.749" style="fill:none;stroke:rgb(128,42,0);stroke-width:8.73px;"/>
                </g>
                <g transform="matrix(-1,0,0,1,992.369,-98.215)">
                    <path d="M357.685,512.5L604.014,625.749" style="fill:none;stroke:rgb(128,42,0);stroke-width:8.73px;"/>
                </g>
                <g transform="matrix(-1,0,0,1,1001.81,-41.5902)">
                    <path d="M357.685,512.5L604.014,625.749" style="fill:none;stroke:rgb(128,42,0);stroke-width:8.73px;"/>
                </g>
                <g transform="matrix(-1,0,0,1,939.461,-130.509)">
                    <path d="M357.685,512.5L604.014,625.749" style="fill:none;stroke:rgb(128,42,0);stroke-width:8.73px;"/>
                </g>
                <g transform="matrix(-1,0,0,1,939.461,-73.8845)">
                    <path d="M357.685,512.5L604.014,625.749" style="fill:none;stroke:rgb(128,42,0);stroke-width:8.73px;"/>
                </g>
                <g transform="matrix(-1,0,0,1,1011.25,185.564)">
                    <path d="M357.685,512.5L604.014,625.749" style="fill:none;stroke:rgb(128,42,0);stroke-width:8.73px;"/>
                </g>
            </g>
            <path d="M320.399,496.067C319.736,474.089 324.169,444.832 347.907,425.966C339.683,419.232 335.721,402.705 336.537,387.261C335.647,370.25 340.409,352.293 351.505,347.779C355.043,346.34 359.385,344.76 364.402,343.07C360.425,337.143 358.684,329.173 359.405,321.229C358.293,309.131 362.976,295.617 374.313,288.476C378.233,286.007 385.662,282.818 395.512,279.21C393.711,272.661 393.002,264.907 393.319,257.314C392.49,237.676 398.716,216.299 410.87,217.129C411.193,217.151 411.519,217.172 411.848,217.192C428.643,193.178 474.838,133.677 505.09,123.48C540.108,111.677 613.525,140.304 618.301,154.993C619.44,158.497 618.502,161.904 616.089,165.126C628.424,166.627 636.66,172.147 646.223,176.864C652.576,179.999 656.551,183.924 667.913,179.577C659.922,188.517 648.531,183.001 648.548,185.45C648.579,189.982 662.047,191.862 662.047,191.862C654.296,193.726 644.599,191.494 640.929,187.487C633.441,179.312 626.19,169.96 613.282,168.212C602.614,178.174 578.659,185.907 561.576,188.433C550.573,190.06 524.104,184.223 509.642,195.711C503.066,200.934 488.242,204.738 482.112,215.25C519.153,213.497 556.64,212.614 570.225,221.171C574.674,223.974 578.099,227.758 580.55,232.054C583.597,231.722 586.318,231.511 588.668,231.434C608.077,230.796 614.206,245.819 613.122,262.284C613.634,269.446 612.474,277.331 610.212,284.601C612.246,284.384 613.939,284.259 615.258,284.235C631.119,283.943 639.091,297.846 637.242,312.057C638.035,317.961 637.044,324.423 634.11,330.304C649.869,330.403 656.906,347.205 655.581,364.253C655.804,367.034 655.79,369.896 655.539,372.761C656.942,388.244 650.929,406.377 637.799,413.563C633.91,415.691 628.96,417.742 623.135,419.725C598.081,489.177 524.105,694.281 523.257,696.999C514.397,725.401 468.271,724.99 458.187,696.999C434.877,632.296 382.524,511.764 364.182,469.905C331.504,483.242 325.095,513.358 324.218,530.423C324.337,532.592 324.504,533.83 324.504,533.83C324.504,533.83 324.365,533.338 324.137,532.417C323.952,538.741 324.504,542.83 324.504,542.83C324.504,542.83 319.674,525.767 320.415,504.575C320.322,501.843 320.308,498.996 320.399,496.067Z" style="fill:none;stroke:rgb(128,42,0);stroke-width:40.73px;"/>
        </g>
        <g transform="matrix(1,0,0,1,18.3746,93.0789)">
            <path d="M357.685,455.129C357.685,455.129 429.67,617.842 458.187,696.999C468.271,724.99 514.397,725.401 523.257,696.999C524.278,693.726 631.324,397.025 631.324,397.025L357.685,455.129Z" style="fill:rgb(174,94,37);"/>
            <clipPath id="_clip2">
                <path d="M357.685,455.129C357.685,455.129 429.67,617.842 458.187,696.999C468.271,724.99 514.397,725.401 523.257,696.999C524.278,693.726 631.324,397.025 631.324,397.025L357.685,455.129Z"/>
            </clipPath>
            <g clip-path="url(#_clip2)">
                <path d="M357.685,512.5L604.014,625.749" style="fill:none;stroke:rgb(128,41,0);stroke-width:8.73px;"/>
                <g transform="matrix(1,0,0,1,-9.43915,56.6247)">
                    <path d="M357.685,512.5L604.014,625.749" style="fill:none;stroke:rgb(128,41,0);stroke-width:8.73px;"/>
                </g>
                <g transform="matrix(1,0,0,1,-9.43915,113.249)">
                    <path d="M357.685,512.5L604.014,625.749" style="fill:none;stroke:rgb(128,41,0);stroke-width:8.73px;"/>
                </g>
                <g transform="matrix(1,0,0,1,9.43915,-113.249)">
                    <path d="M357.685,512.5L604.014,625.749" style="fill:none;stroke:rgb(128,41,0);stroke-width:8.73px;"/>
                </g>
                <g transform="matrix(1,0,0,1,0,-56.6247)">
                    <path d="M357.685,512.5L604.014,625.749" style="fill:none;stroke:rgb(128,41,0);stroke-width:8.73px;"/>
                </g>
                <g transform="matrix(1,0,0,1,62.3469,-145.544)">
                    <path d="M357.685,512.5L604.014,625.749" style="fill:none;stroke:rgb(128,41,0);stroke-width:8.73px;"/>
                </g>
                <g transform="matrix(1,0,0,1,62.3469,-88.919)">
                    <path d="M357.685,512.5L604.014,625.749" style="fill:none;stroke:rgb(128,41,0);stroke-width:8.73px;"/>
                </g>
                <g transform="matrix(1,0,0,1,-9.43915,170.53)">
                    <path d="M357.685,512.5L604.014,625.749" style="fill:none;stroke:rgb(128,41,0);stroke-width:8.73px;"/>
                </g>
                <g transform="matrix(-1,0,0,1,1001.81,15.0345)">
                    <path d="M357.685,512.5L604.014,625.749" style="fill:none;stroke:rgb(128,41,0);stroke-width:8.73px;"/>
                </g>
                <g transform="matrix(-1,0,0,1,1011.25,71.6593)">
                    <path d="M357.685,512.5L604.014,625.749" style="fill:none;stroke:rgb(128,41,0);stroke-width:8.73px;"/>
                </g>
                <g transform="matrix(-1,0,0,1,1011.25,128.284)">
                    <path d="M357.685,512.5L604.014,625.749" style="fill:none;stroke:rgb(128,41,0);stroke-width:8.73px;"/>
                </g>
                <g transform="matrix(-1,0,0,1,992.369,-98.215)">
                    <path d="M357.685,512.5L604.014,625.749" style="fill:none;stroke:rgb(128,41,0);stroke-width:8.73px;"/>
                </g>
                <g transform="matrix(-1,0,0,1,1001.81,-41.5902)">
                    <path d="M357.685,512.5L604.014,625.749" style="fill:none;stroke:rgb(128,41,0);stroke-width:8.73px;"/>
                </g>
                <g transform="matrix(-1,0,0,1,939.461,-130.509)">
                    <path d="M357.685,512.5L604.014,625.749" style="fill:none;stroke:rgb(128,41,0);stroke-width:8.73px;"/>
                </g>
                <g transform="matrix(-1,0,0,1,939.461,-73.8845)">
                    <path d="M357.685,512.5L604.014,625.749" style="fill:none;stroke:rgb(128,41,0);stroke-width:8.73px;"/>
                </g>
                <g transform="matrix(-1,0,0,1,1011.25,185.564)">
                    <path d="M357.685,512.5L604.014,625.749" style="fill:none;stroke:rgb(128,41,0);stroke-width:8.73px;"/>
                </g>
            </g>
        </g>
        <g transform="matrix(1,0,0,1,18.3746,93.0789)">
            <path d="M631.324,397.025C632.319,411.261 547.399,611.627 512.435,675.3C494.176,708.552 464.742,714.137 454.423,686.737C454.423,686.737 458.428,693.518 458.187,696.999C455.895,730.136 517.126,732.488 525.986,704.086C527.007,700.814 631.324,397.025 631.324,397.025Z" style="fill:rgb(128,41,0);"/>
        </g>
        <g transform="matrix(1,0,0,1,18.3746,93.0789)">
            <g transform="matrix(0.990882,-0.134734,0.134734,0.990882,-14.6117,59.3327)">
                <path d="M601.402,191.409C618.291,192.87 625.034,204.839 632.297,215.31C635.393,219.774 644.701,223.293 652.632,222.49C652.632,222.49 639.54,218.812 640.12,214.318C640.433,211.889 650.977,218.889 660.101,211.107C648.256,213.884 644.847,209.459 638.973,205.497C628.43,198.385 619.909,190.396 603.191,188.396" style="fill:rgb(255,162,248);"/>
            </g>
            <g>
                <g transform="matrix(1,0,0,1,9.92598,119.203)">
                    <path d="M395.982,107C401.62,96.923 459.483,16.304 495.164,4.278C530.182,-7.525 603.599,21.102 608.375,35.791C613.557,51.729 575.76,65.666 551.65,69.231C540.647,70.858 505.707,58.137 491.245,69.624C476.923,81.001 463.651,118.306 451.466,123.239C439.446,128.106 430.968,130.191 430.968,130.191" style="fill:rgb(64,186,99);"/>
                </g>
                <g transform="matrix(1,0,0,1,9.92598,119.203)">
                    <path d="M395.982,107C397.352,104.553 408.263,89.172 408.263,89.172C403.206,96.754 461.709,96.459 468.734,89.061C477.71,79.607 483.208,65.455 494.474,61.25C510.304,55.34 544.762,58.104 564.859,57.25C580.575,56.583 611.754,42.284 606.295,32.397C606.295,32.397 608.029,34.726 608.375,35.791C613.557,51.729 575.76,65.666 551.65,69.231C540.647,70.858 505.707,58.137 491.245,69.624C476.923,81.001 463.651,118.306 451.466,123.239C439.446,128.106 430.968,130.191 430.968,130.191" style="fill:rgb(27,161,68);"/>
                </g>
                <g>
                    <g transform="matrix(0.845276,-1.89482e-17,1.89482e-17,-1,60.3648,500.355)">
                        <path d="M414.664,283.226C390.205,284.638 386.037,221.787 408.731,212.555C455.793,193.41 562.907,222.027 593.922,222C624.936,221.972 631.061,264.343 603.187,279.183C575.313,294.024 462.375,280.471 414.664,283.226Z" style="fill:rgb(128,42,0);"/>
                    </g>
                    <g transform="matrix(0.845276,-1.89482e-17,1.89482e-17,-1,60.3648,507.355)">
                        <path d="M414.664,283.226C390.205,284.638 386.037,221.787 408.731,212.555C455.793,193.41 562.907,222.027 593.922,222C624.936,221.972 631.061,264.343 603.187,279.183C575.313,294.024 462.375,280.471 414.664,283.226Z" style="fill:rgb(64,186,99);"/>
                    </g>
                    <g transform="matrix(0.845276,-1.89482e-17,1.89482e-17,-1,60.3648,507.355)">
                        <path d="M596.054,281.921C610.672,276.425 539.14,265.92 508.68,261.156C484.145,257.319 394.049,229.09 394.037,252.165C394.037,252.165 393.861,249.472 393.831,248.12C393.483,232.57 398.233,216.826 408.731,212.555C455.793,193.41 562.907,222.027 593.922,222C624.936,221.972 631.061,264.343 603.187,279.183C601.217,280.233 596.054,281.921 596.054,281.921Z" style="fill:rgb(27,161,68);"/>
                    </g>
                </g>
                <g>
                    <g transform="matrix(-0.845276,-1.89482e-17,-1.89482e-17,-1,900.173,513.659)">
                        <path d="M368.525,282.226C322.1,283.516 339.899,220.787 362.593,211.555C409.654,192.41 581.836,168.027 612.85,168C643.865,167.972 649.99,210.343 622.116,225.183C594.242,240.024 416.322,280.897 368.525,282.226Z" style="fill:rgb(128,42,0);"/>
                    </g>
                    <g transform="matrix(-0.845276,-1.89482e-17,-1.89482e-17,-1,900.173,520.659)">
                        <path d="M368.525,282.226C322.1,283.516 339.899,220.787 362.593,211.555C409.654,192.41 581.836,168.027 612.85,168C643.865,167.972 649.99,210.343 622.116,225.183C594.242,240.024 416.322,280.897 368.525,282.226Z" style="fill:rgb(64,186,99);"/>
                    </g>
                    <g transform="matrix(-0.845276,-1.89482e-17,-1.89482e-17,-1,900.173,520.659)">
                        <path d="M639.677,200.073C640.156,183.123 566.853,198.226 493.907,214.358C418.588,231.016 341.147,240.141 340.875,265.218C340.875,265.218 339.783,260.683 339.585,258.269C338.085,239.915 349.528,216.87 362.593,211.555C409.654,192.41 581.836,168.027 612.85,168C630.381,167.984 639.959,181.514 639.941,195.962C639.939,197.327 639.677,200.073 639.677,200.073Z" style="fill:rgb(27,161,68);"/>
                    </g>
                </g>
                <g>
                    <g transform="matrix(1,0,0,1,-5.89119,158.206)">
                        <path d="M362.963,262.861C338.504,264.273 334.702,198.805 357.396,189.573C404.458,170.429 593.723,126.534 621.15,126.029C648.576,125.524 652.415,167.467 622.667,180.045C592.919,192.624 410.675,260.107 362.963,262.861Z" style="fill:rgb(128,42,0);"/>
                    </g>
                    <g transform="matrix(1,0,0,1,-5.89119,166.206)">
                        <path d="M362.963,262.861C338.504,264.273 334.702,198.805 357.396,189.573C404.458,170.429 593.723,126.534 621.15,126.029C648.576,125.524 652.415,167.467 622.667,180.045C592.919,192.624 410.675,260.107 362.963,262.861Z" style="fill:rgb(64,186,99);"/>
                    </g>
                    <g transform="matrix(1,0,0,1,-5.89119,166.206)">
                        <path d="M362.963,262.861C352.868,263.444 346.292,252.634 343.645,239.086C343.299,237.314 342.809,233.649 342.809,233.649C348.131,250.573 424.86,217.824 501.806,193.562C573.858,170.844 642.269,161.023 642.42,142.296C642.42,142.296 642.939,144.487 643.101,145.618C644.891,158.165 638.591,173.312 622.667,180.045C592.919,192.624 410.675,260.107 362.963,262.861Z" style="fill:rgb(27,161,68);"/>
                    </g>
                </g>
                <g>
                    <g transform="matrix(1,0,0,1,-5.89119,158.206)">
                        <path d="M330.396,367.625C330.396,367.625 309.185,292.707 362.472,261.865C415.758,231.023 592.545,172.877 639.486,172.101C667.893,171.631 668.613,224.718 643.69,238.357C601.005,261.718 430.607,275.734 376.548,292.392C322.489,309.049 330.396,367.625 330.396,367.625Z" style="fill:rgb(128,42,0);"/>
                    </g>
                    <g transform="matrix(1,0,0,1,-5.89119,175.206)">
                        <path d="M330.396,367.625C330.396,367.625 309.185,292.707 362.472,261.865C415.758,231.023 592.545,172.877 639.486,172.101C667.893,171.631 668.613,224.718 643.69,238.357C601.005,261.718 430.607,275.734 376.548,292.392C322.489,309.049 330.396,367.625 330.396,367.625Z" style="fill:rgb(128,42,0);"/>
                    </g>
                    <g transform="matrix(1,0,0,1,-5.89119,166.206)">
                        <path d="M330.396,367.625C330.396,367.625 309.185,292.707 362.472,261.865C415.758,231.023 592.545,172.877 639.486,172.101C667.893,171.631 668.613,224.718 643.69,238.357C601.005,261.718 430.607,275.734 376.548,292.392C322.489,309.049 330.396,367.625 330.396,367.625Z" style="fill:rgb(64,186,99);"/>
                    </g>
                    <g transform="matrix(1,0,0,1,-5.89119,166.206)">
                        <path d="M330.396,367.625C324.272,300.828 364.264,277.369 468.699,262.88C506.345,257.657 659.618,245.415 661.588,199.962C661.588,199.962 661.626,201.185 661.629,201.799C661.69,216.22 655.636,231.82 643.69,238.357C601.005,261.718 430.607,275.734 376.548,292.392C322.489,309.049 330.396,367.625 330.396,367.625Z" style="fill:rgb(27,161,68);"/>
                    </g>
                </g>
                <g transform="matrix(0.853477,0.197479,-0.225426,0.97426,158.786,-115.382)">
                    <path d="M512.5,159.008C512.5,157.069 510.702,155.494 508.488,155.494L500.196,155.494C497.982,155.494 496.184,157.069 496.184,159.008C496.184,160.948 497.982,162.523 500.196,162.523L508.488,162.523C510.702,162.523 512.5,160.948 512.5,159.008Z" style="fill:rgb(128,42,0);"/>
                </g>
            </g>
        </g>
    </g>
    <g transform="matrix(1,0,0,1,75.5171,-0.0120804)">
        <g transform="matrix(1,0,0,1,1,0)">
            <path d="M448.483,339.579C429.294,345.86 409.649,345.23 392.764,336.204C359.228,318.274 347.19,272.882 360.966,227.484L360.638,198.361L382.466,163.315L404.007,161.469C432.351,137.672 467.464,129.894 495.15,144.696C499.348,146.94 503.21,149.615 506.726,152.666L550.082,148.95C567.623,182.432 612.73,195.497 633.332,186.77L721.976,189.491C730.697,199.243 771.106,196.846 779.328,189.639L879.216,198.361C896.554,215.684 930.935,209.887 940.162,200.186L948.516,199.61C972.069,181.366 1005.96,177.858 1034.93,193.347C1035.1,193.435 1035.26,193.524 1035.42,193.613L1049.74,192.625C1059.25,202.275 1079.33,208.836 1111.49,150.627L1172.08,160.99C1140.7,219.522 1176.7,199.424 1192.47,188.423L1251.39,175.474C1276.52,184.056 1287.7,184.111 1302.11,178.2L1321.04,178.161C1331.29,181.914 1340.86,183.372 1349.38,181.255L1551.41,141.31L1628.9,167.411C1638.37,185.687 1650.86,191.596 1667.1,179.849L1709.82,210.88C1707.26,236.246 1737.71,222.288 1752.81,189.892L1798.02,228.878C1762.13,298.569 1789.92,267.812 1809.3,257.995L1689.2,409.399L1636.24,355.831C1658.15,353.802 1666.33,351.143 1649.7,343.96C1649.7,343.96 1633.21,328.968 1628.6,325.053C1605.28,285.943 1578.6,294.451 1558.77,305.242C1535.56,317.875 1473.85,325.797 1473.85,325.797C1458.88,325.263 1430.43,340.489 1402.49,372.648L1354.7,350.853C1352.34,341.279 1337.25,335.284 1321.06,340.767L1267.29,343.918C1251.09,333.478 1251.88,330.971 1230.28,341.616L1167.09,344.298C1144.86,333.375 1144.61,328.6 1114.59,344.679L1068.79,343.66C1052.42,332.271 1045.64,333.744 1019.39,344.418C1005.28,347.416 943.891,341.418 943.891,341.418C905.662,317.409 840.688,373.454 828.202,390.469L727.695,375.792C755.396,326.519 727.909,336.07 687.684,346.201L678.863,344.272C662.826,346.255 645.845,343.416 630.282,335.096C628.885,334.349 627.519,333.568 626.183,332.755L599.592,326.942C580.408,304.512 516.367,337.8 497.251,372.648L448.483,339.579Z" style="fill:rgb(128,41,0);"/>
        </g>
        <g transform="matrix(1.50729,0,0,0.981186,328.77,127.352)">
            <path d="M268.368,186.26C265.438,191.298 262.259,195.858 258.83,199.939C254.113,205.556 248.746,210.086 242.731,213.528C236.716,216.971 229.757,218.873 221.855,219.236C211.947,219.598 203.662,217.469 196.998,212.849C190.334,208.229 185.115,201.842 181.341,193.689C177.802,186.441 175.414,178.106 174.175,168.685C172.937,159.263 172.76,149.615 173.645,139.74C174.529,129.866 176.446,119.991 179.394,110.116C182.343,100.242 186.235,91.227 191.071,83.074C194.727,76.914 199.003,71.523 203.898,66.903C208.792,62.283 213.982,58.84 219.466,56.576C224.951,54.311 230.465,53.495 236.008,54.13C241.552,54.764 246.8,57.255 251.754,61.603C255.882,65.408 259.125,70.21 261.484,76.008C263.843,81.806 264.934,88.147 264.757,95.032C264.58,101.917 262.988,109.12 259.98,116.639C256.973,124.158 252.226,131.451 245.739,138.517C242.554,141.96 239.163,145.266 235.566,148.437C231.969,151.608 228.401,154.552 224.862,157.27C221.324,159.988 217.963,162.434 214.778,164.608C211.593,166.782 208.822,168.594 206.463,170.044C206.699,170.406 206.935,170.678 207.171,170.859C208.35,173.939 210.208,176.476 212.743,178.469C215.279,180.462 218.257,181.775 221.678,182.41C225.098,183.044 228.843,182.817 232.912,181.73C236.981,180.643 241.109,178.65 245.296,175.751C249.483,172.852 253.582,168.911 257.592,163.929C261.039,159.646 264.268,154.46 267.279,148.371C267.452,147.094 267.644,145.803 267.853,144.496C269.387,135.256 271.657,126.061 274.665,116.911C277.672,107.761 281.299,99.336 285.545,91.635C289.791,83.935 294.597,77.14 299.964,71.252C305.33,65.363 311.139,60.969 317.39,58.07C323.641,55.171 329.627,54.356 335.347,55.624C341.068,56.893 346.228,59.565 350.828,63.642C355.428,67.719 359.438,72.928 362.858,79.269C366.278,85.611 368.873,92.45 370.642,99.789C372.412,107.127 373.237,114.691 373.119,122.482C373.001,130.273 371.763,137.702 369.404,144.768L349.766,202.929C354.484,200.755 358.966,197.448 363.212,193.009C367.458,188.57 371.35,183.723 374.888,178.469C378.427,173.214 381.552,167.915 384.265,162.57C386.006,159.14 387.503,155.953 388.758,153.008C388.724,148.632 388.907,144.209 389.307,139.74C390.192,129.866 392.108,119.991 395.057,110.116C398.006,100.242 401.898,91.227 406.734,83.074C410.39,76.914 414.665,71.523 419.56,66.903C424.455,62.283 429.644,58.84 435.129,56.576C440.613,54.311 446.127,53.495 451.671,54.13C457.214,54.764 462.463,57.255 467.416,61.603C471.544,65.408 474.788,70.21 477.147,76.008C479.506,81.806 480.597,88.147 480.42,95.032C480.243,101.917 478.651,109.12 475.643,116.639C472.635,124.158 467.888,131.451 461.401,138.517C458.217,141.96 454.826,145.266 451.228,148.437C447.631,151.608 444.063,154.552 440.525,157.27C436.987,159.988 433.625,162.434 430.441,164.608C427.256,166.782 424.484,168.594 422.125,170.044C422.361,170.406 422.597,170.678 422.833,170.859C424.013,173.939 425.87,176.476 428.406,178.469C430.942,180.462 433.92,181.775 437.34,182.41C440.761,183.044 444.506,182.817 448.575,181.73C452.644,180.643 456.772,178.65 460.959,175.751C465.146,172.852 469.245,168.911 473.255,163.929C476.351,160.081 479.272,155.504 482.017,150.197C482.354,148.234 482.735,146.243 483.162,144.225C484.224,139.514 485.698,133.988 487.585,127.646C489.472,121.304 491.625,114.555 494.042,107.398C496.46,100.242 499.055,92.813 501.827,85.112C504.599,77.412 507.341,69.938 510.054,62.691C516.541,45.659 523.499,27.812 530.93,9.15C532.817,5.164 534.969,2.537 537.387,1.268C539.805,-0 542.223,-0.317 544.641,0.317C547.059,0.951 549.27,2.401 551.275,4.666C553.28,6.93 554.814,9.739 555.875,13.091C556.937,16.443 557.408,20.066 557.291,23.962C557.173,27.857 556.17,31.798 554.283,35.784C548.15,51.548 542.429,66.405 537.122,80.356C534.881,86.335 532.611,92.36 530.311,98.43C528.011,104.499 525.829,110.297 523.765,115.824C521.701,121.35 519.843,126.423 518.192,131.043C516.541,135.663 515.243,139.423 514.3,142.322C510.997,152.65 508.963,160.984 508.196,167.326C507.429,173.667 507.606,178.288 508.727,181.187C509.847,184.086 511.675,185.309 514.211,184.856C516.747,184.403 519.637,182.546 522.88,179.284C526.124,176.023 529.603,171.493 533.318,165.695C535.607,162.123 537.817,158.174 539.949,153.846C540.255,150.822 540.669,147.706 541.191,144.496C542.842,134.169 545.437,123.932 548.975,113.785C552.514,103.639 556.789,94.444 561.802,86.2C566.815,77.956 572.476,71.07 578.786,65.544C585.096,60.018 591.907,56.711 599.22,55.624C603.938,54.9 608.184,55.171 611.958,56.44C615.732,57.708 619.064,59.656 621.954,62.283C624.844,64.91 627.379,67.945 629.561,71.388C631.743,74.83 633.601,78.363 635.134,81.987C636.078,79.632 636.933,77.593 637.7,75.872C638.466,74.151 639.144,72.565 639.734,71.116C640.442,69.666 641.091,68.307 641.68,67.039C643.567,63.053 645.72,60.426 648.138,59.157C650.556,57.889 652.944,57.572 655.303,58.206C657.662,58.84 659.873,60.29 661.937,62.555C664.001,64.82 665.564,67.628 666.626,70.98C667.687,74.332 668.159,77.956 668.041,81.851C667.923,85.747 666.921,89.687 665.033,93.673L662.999,98.022C661.642,100.921 659.962,104.681 657.957,109.301C655.952,113.921 653.829,119.13 651.588,124.928C649.347,130.726 647.283,136.524 645.396,142.322C642.093,152.65 640.059,160.984 639.292,167.326C638.525,173.667 638.702,178.288 639.823,181.187C640.943,184.086 642.771,185.309 645.307,184.856C647.843,184.403 650.733,182.546 653.976,179.284C657.22,176.023 660.699,171.493 664.414,165.695C668.129,159.897 671.638,153.103 674.941,145.312C676.828,140.963 674.445,110.908 674.498,96.799C674.557,81.126 678.066,66.043 685.025,51.548C690.451,40.676 697.675,30.983 706.697,22.467C715.72,13.951 725.687,6.976 736.597,1.54C747.506,-3.896 758.859,-7.519 770.653,-9.331C782.448,-11.143 793.741,-10.781 804.533,-8.244C815.325,-5.707 825.203,-0.861 834.167,6.296C843.13,13.453 850.207,23.373 855.397,36.056C858.817,44.21 861.058,52.906 862.12,62.147C863.181,71.388 863.063,80.628 861.766,89.869C860.822,98.566 858.965,107.172 856.193,115.688C853.421,124.203 849.794,132.357 845.312,140.148C839.887,149.207 833.341,157.542 825.675,165.152C818.008,172.761 809.31,179.058 799.579,184.04C789.849,189.023 779.175,192.33 767.557,193.96C755.94,195.591 743.526,194.866 730.316,191.786L712.978,237.989C710.737,243.243 707.7,246.686 703.867,248.316C700.034,249.947 696.289,249.222 692.633,246.142C690.981,244.511 689.566,242.518 688.387,240.163C687.207,237.807 686.381,235.226 685.91,232.417C685.438,229.609 685.32,226.755 685.556,223.856C685.792,220.957 686.44,218.239 687.502,215.703L745.885,61.06C747.772,55.624 750.691,52.182 754.642,50.732C758.593,49.283 762.279,50.008 765.7,52.906C769.356,55.987 771.626,60.516 772.511,66.495C773.395,72.475 772.835,78.091 770.83,83.346L745.885,149.388C755.084,150.475 763.635,150.158 771.538,148.437C779.44,146.716 786.635,144.043 793.122,140.42C799.609,136.796 805.388,132.402 810.46,127.238C815.531,122.074 819.836,116.412 823.375,110.252C826.087,105.541 828.299,100.785 830.009,95.984C831.719,91.182 832.869,86.426 833.459,81.715C834.167,73.381 833.341,65.952 830.982,59.429C827.68,51.638 822.844,45.704 816.475,41.628C810.106,37.551 802.97,35.06 795.068,34.154C787.166,33.248 778.85,33.746 770.122,35.648C761.395,37.551 753.02,40.541 745,44.617C736.98,48.694 729.697,53.631 723.151,59.429C716.605,65.227 711.622,71.659 708.201,78.726C705.017,85.611 703.513,92.36 703.69,98.973C703.867,105.587 705.371,112.517 708.201,119.764C710.088,125.019 710.59,130.5 709.705,136.207C708.82,141.914 706.668,146.489 703.248,149.932C699.827,153.193 696.141,154.054 692.19,152.514C691.37,152.194 689.135,154.729 688.387,156.455C686.381,160.984 684.288,165.65 682.106,170.451C679.924,175.253 677.624,179.964 675.206,184.584C672.788,189.204 670.252,193.553 667.599,197.629C664.945,201.706 662.085,205.284 659.018,208.365C654.064,213.257 649.288,216.427 644.688,217.877C640.088,219.326 635.842,219.372 631.95,218.013C628.058,216.654 624.637,214.027 621.689,210.131C618.74,206.236 616.381,201.389 614.612,195.591C611.309,199.396 607.918,202.838 604.439,205.919C600.96,208.999 597.333,211.535 593.559,213.528C585.302,218.058 577.489,219.734 570.117,218.556C562.746,217.379 556.524,213.71 551.452,207.549C547.369,202.589 544.26,196.161 542.127,188.265C540.315,191.532 538.44,194.653 536.503,197.629C533.849,201.706 530.989,205.284 527.922,208.365C520.138,215.974 512.884,219.553 506.161,219.1C499.438,218.647 493.866,215.204 489.443,208.772C486.05,203.839 483.56,197.467 481.972,189.656C479.627,193.368 477.134,196.796 474.493,199.939C469.775,205.556 464.409,210.086 458.394,213.528C452.378,216.971 445.42,218.873 437.517,219.236C427.61,219.598 419.324,217.469 412.66,212.849C405.996,208.229 400.777,201.842 397.003,193.689C395.309,190.218 393.878,186.499 392.711,182.53C392.317,183.178 391.919,183.817 391.519,184.448C386.683,192.058 381.434,199.079 375.773,205.511C370.112,211.943 364.038,217.968 357.551,223.584C351.064,229.201 344.223,234.999 337.028,240.978C335.141,246.595 333.106,252.121 330.924,257.557C328.742,262.992 326.266,268.02 323.494,272.641C320.722,277.261 317.597,281.202 314.117,284.463C310.638,287.724 306.716,289.899 302.352,290.986C297.281,292.435 292.356,291.937 287.58,289.491C282.803,287.045 278.527,283.285 274.753,278.212C271.687,274.045 270.006,268.926 269.711,262.857C269.416,256.787 270.625,251.396 273.338,246.686C275.933,242.156 279.117,239.619 282.891,239.076C285.014,238.713 287.344,238.487 289.88,238.396C292.415,238.306 294.922,237.989 297.399,237.445C299.875,236.902 302.146,235.814 304.21,234.184C306.274,232.553 307.837,230.107 308.898,226.846L312.26,217.062C304.947,219.417 298.106,219.462 291.737,217.197C285.368,214.933 280.061,210.629 275.815,204.288C272.546,199.406 270.064,193.397 268.368,186.26ZM241.139,97.478C240.785,94.761 239.576,92.949 237.512,92.043C235.448,91.137 232.912,91.092 229.904,91.907C226.897,92.722 223.712,94.444 220.351,97.071C216.989,99.698 213.952,103.231 211.24,107.67C208.527,112.109 206.315,117.454 204.605,123.705C202.895,129.956 202.217,137.068 202.571,145.04C210.119,139.061 216.783,133.172 222.562,127.374C225.039,125.019 227.428,122.482 229.728,119.764C232.027,117.047 234.062,114.419 235.831,111.883C237.6,109.346 238.986,106.855 239.989,104.409C240.991,101.963 241.375,99.653 241.139,97.478ZM321.282,164.608C327.18,159.535 331.78,153.193 335.082,145.583C338.384,137.974 340.331,130.681 340.92,123.705C341.51,116.729 340.773,110.886 338.709,106.175C336.645,101.465 333.254,99.471 328.536,100.196C325.116,100.74 321.754,102.597 318.452,105.768C315.149,108.938 312.053,112.925 309.164,117.726C306.274,122.527 303.738,127.691 301.556,133.217C299.374,138.744 297.723,144.134 296.602,149.388C295.482,154.643 295.01,159.354 295.187,163.521C295.364,167.688 296.396,170.723 298.283,172.626C300.17,174.528 302.971,174.981 306.687,173.984C310.402,172.988 315.267,169.862 321.282,164.608ZM594.62,164.608C600.517,159.535 605.117,153.193 608.42,145.583C611.722,137.974 613.668,130.681 614.258,123.705C614.848,116.729 614.111,110.886 612.047,106.175C609.983,101.465 606.592,99.471 601.874,100.196C598.453,100.74 595.092,102.597 591.789,105.768C588.487,108.938 585.391,112.925 582.501,117.726C579.612,122.527 577.076,127.691 574.894,133.217C572.712,138.744 571.061,144.134 569.94,149.388C568.82,154.643 568.348,159.354 568.525,163.521C568.702,167.688 569.734,170.723 571.621,172.626C573.508,174.528 576.309,174.981 580.024,173.984C583.74,172.988 588.605,169.862 594.62,164.608ZM456.801,97.478C456.447,94.761 455.239,92.949 453.175,92.043C451.11,91.137 448.575,91.092 445.567,91.907C442.559,92.722 439.375,94.444 436.014,97.071C432.652,99.698 429.615,103.231 426.902,107.67C424.19,112.109 421.978,117.454 420.268,123.705C418.558,129.956 417.879,137.068 418.233,145.04C425.782,139.061 432.446,133.172 438.225,127.374C440.702,125.019 443.09,122.482 445.39,119.764C447.69,117.047 449.725,114.419 451.494,111.883C453.263,109.346 454.649,106.855 455.651,104.409C456.654,101.963 457.037,99.653 456.801,97.478ZM147.019,118.134C151.265,118.134 154.803,120.263 157.634,124.521C160.464,128.778 161.88,133.988 161.88,140.148C161.88,146.127 160.464,151.336 157.634,155.775C154.803,160.214 151.265,162.434 147.019,162.434L136.58,162.434C136.109,163.883 135.873,164.699 135.873,164.88L101.197,266.526C99.428,272.142 96.685,275.766 92.97,277.397C89.255,279.027 85.51,278.393 81.736,275.494C79.967,274.226 78.492,272.459 77.313,270.195C76.134,267.93 75.278,265.438 74.748,262.721C74.217,260.003 74.011,257.104 74.128,254.024C74.246,250.943 74.777,248.044 75.721,245.327L78.905,236.63C77.254,237.536 75.573,238.26 73.863,238.804C72.153,239.348 70.531,239.891 68.998,240.435C56.496,244.602 45.438,244.194 35.826,239.212C26.213,234.229 18.399,226.03 12.384,214.616C6.369,203.201 2.418,189.385 0.531,173.169C-1.356,156.953 -0.826,139.604 2.123,121.123C5.897,97.931 12.355,77.14 21.495,58.75C30.636,40.359 41.812,25.366 55.021,13.77C59.032,10.328 63.395,7.157 68.113,4.258C72.831,1.359 77.667,-0.951 82.621,-2.673C87.574,-4.394 92.616,-5.526 97.747,-6.07C102.878,-6.613 107.861,-6.206 112.697,-4.847C117.532,-3.488 122.132,-1.132 126.496,2.22C130.86,5.571 134.87,10.146 138.527,15.944C142.301,22.286 144.955,29.035 146.488,36.192C148.021,43.349 148.788,50.37 148.788,57.255C148.788,63.597 148.316,69.485 147.372,74.921C146.429,80.356 145.544,84.977 144.719,88.781C143.657,92.768 142.478,96.21 141.18,99.109C139.883,102.008 138.939,103.911 138.35,104.816C135.401,109.346 131.922,111.52 127.911,111.339C123.901,111.158 120.481,108.621 117.65,103.729C115.291,100.106 113.964,95.712 113.67,90.548C113.375,85.384 114.289,80.809 116.412,76.823C117.119,74.649 117.798,72.203 118.446,69.485C119.095,66.767 119.537,64.004 119.773,61.196C120.009,58.387 119.95,55.715 119.596,53.178C119.242,50.642 118.476,48.377 117.296,46.384C114.584,42.035 111.045,39.453 106.681,38.638C102.317,37.823 97.835,38.094 93.236,39.453C88.636,40.812 84.183,42.805 79.878,45.433C75.573,48.06 72.123,50.551 69.529,52.906C59.857,61.422 51.571,72.384 44.672,85.792C37.772,99.2 32.966,114.419 30.253,131.451C28.602,141.597 28.012,151.2 28.484,160.26C28.956,169.319 30.518,176.974 33.172,183.225C35.826,189.476 39.659,193.96 44.672,196.678C49.684,199.396 55.906,199.486 63.337,196.95C68.998,194.957 74.807,191.197 80.763,185.671C86.719,180.145 92.351,172.58 97.659,162.977L64.398,162.977C60.152,162.977 56.614,160.758 53.783,156.319C50.952,151.88 49.537,146.671 49.537,140.691C49.537,134.35 50.952,129.005 53.783,124.656C56.614,120.308 60.152,118.134 64.398,118.134L147.019,118.134ZM948.455,70.572C950.225,64.955 953.055,61.196 956.947,59.293C960.84,57.391 964.555,57.889 968.093,60.788C971.75,63.687 974.197,68.081 975.435,73.969C976.674,79.858 976.29,85.611 974.285,91.227L938.725,200.755C940.848,199.305 943.856,196.633 947.748,192.737C951.64,188.842 955.68,184.357 959.867,179.284C964.054,174.211 968.034,168.775 971.809,162.977C975.583,157.179 978.472,151.653 980.478,146.399C982.365,142.05 984.399,139.559 986.581,138.925C988.763,138.291 990.621,138.789 992.154,140.42C993.687,142.05 994.69,144.451 995.162,147.622C995.633,150.793 995.162,154.009 993.746,157.27C989.264,166.873 984.517,175.525 979.504,183.225C974.492,190.925 969.096,198.128 963.317,204.831C957.537,211.535 951.404,217.877 944.917,223.856C938.43,229.835 931.53,235.814 924.218,241.794C922.449,247.41 920.473,253.027 918.291,258.644C916.109,264.261 913.632,269.379 910.86,273.999C908.089,278.62 904.963,282.515 901.484,285.686C898.004,288.857 894.024,290.986 889.542,292.073C884.47,293.522 879.546,293.069 874.769,290.714C869.992,288.359 865.717,284.554 861.943,279.299C860.409,277.306 859.23,274.951 858.404,272.233C857.579,269.515 857.107,266.752 856.989,263.944C856.871,261.135 857.077,258.282 857.608,255.383C858.139,252.484 859.053,249.856 860.35,247.501C863.063,243.334 866.248,240.797 869.904,239.891C874.15,239.348 877.659,239.076 880.431,239.076C883.202,239.076 885.65,238.623 887.773,237.717C889.896,236.811 891.812,234.954 893.523,232.145C895.233,229.337 897.149,224.762 899.272,218.42C894.319,219.508 889.512,219.145 884.854,217.333C880.195,215.521 876.037,212.079 872.381,207.006C866.484,198.852 863.004,188.072 861.943,174.664C861.353,166.511 861.707,157.542 863.004,147.758C864.302,137.974 866.159,128.19 868.577,118.405C870.995,108.621 873.737,99.245 876.804,90.276C879.87,81.307 882.878,73.471 885.827,66.767C887.596,62.781 889.66,60.063 892.019,58.614C894.378,57.164 896.737,56.666 899.095,57.119C901.454,57.572 903.695,58.886 905.818,61.06C907.941,63.234 909.593,65.907 910.772,69.077C911.951,72.248 912.512,75.827 912.453,79.813C912.394,83.799 911.48,87.785 909.71,91.771C908.059,95.938 906.084,101.283 903.784,107.806C901.484,114.329 899.272,121.304 897.149,128.733C893.257,142.866 891.252,153.782 891.134,161.483C891.016,169.183 892.225,173.713 894.761,175.072C897.297,176.43 900.924,174.619 905.641,169.636C910.359,164.653 915.608,156.545 921.387,145.312C923.628,140.963 925.987,135.618 928.464,129.277C930.941,122.935 933.358,116.322 935.717,109.437C938.076,102.552 940.347,95.712 942.529,88.917C944.711,82.123 946.686,76.008 948.455,70.572Z" style="fill:white;stroke:rgb(128,42,0);stroke-width:11.47px;stroke-linecap:butt;stroke-miterlimit:2;"/>
        </g>
    </g>
</svg>
